<svg width="48" height="48" viewBox="0 0 48 48" fill="none" xmlns="http://www.w3.org/2000/svg">
<path fill-rule="evenodd" clip-rule="evenodd" d="M11 22C1.9415 22 0 20.0585 0 11C0 1.9415 1.9415 0 11 0C20.0585 0 22 1.9415 22 11C22 20.0585 20.0585 22 11 22ZM4.34963 15.6725C4.12167 14.6468 4 13.1733 4 11C4 8.82667 4.12167 7.35321 4.34963 6.32749C4.56749 5.34719 4.82583 5.03715 4.93149 4.93149C5.03715 4.82583 5.34719 4.56749 6.32749 4.34963C7.35321 4.12167 8.82667 4 11 4C13.1733 4 14.6468 4.12167 15.6725 4.34963C16.6528 4.56749 16.9629 4.82583 17.0685 4.93149C17.1742 5.03715 17.4325 5.34719 17.6504 6.32749C17.8783 7.35321 18 8.82667 18 11C18 13.1733 17.8783 14.6468 17.6504 15.6725C17.4325 16.6528 17.1742 16.9629 17.0685 17.0685C16.9629 17.1742 16.6528 17.4325 15.6725 17.6504C14.6468 17.8783 13.1733 18 11 18C8.82667 18 7.35321 17.8783 6.32749 17.6504C5.34719 17.4325 5.03715 17.1742 4.93149 17.0685C4.82583 16.9629 4.56749 16.6528 4.34963 15.6725Z" fill="#CACFD8" fill-opacity="0.2"/>
<path fill-rule="evenodd" clip-rule="evenodd" d="M11 48C1.9415 48 0 46.0585 0 37C0 27.9415 1.9415 26 11 26C20.0585 26 22 27.9415 22 37C22 46.0585 20.0585 48 11 48ZM4.34963 41.6725C4.12167 40.6468 4 39.1733 4 37C4 34.8267 4.12167 33.3532 4.34963 32.3275C4.56749 31.3472 4.82583 31.0371 4.93149 30.9315C5.03715 30.8258 5.34719 30.5675 6.32749 30.3496C7.35321 30.1217 8.82667 30 11 30C13.1733 30 14.6468 30.1217 15.6725 30.3496C16.6528 30.5675 16.9629 30.8258 17.0685 30.9315C17.1742 31.0371 17.4325 31.3472 17.6504 32.3275C17.8783 33.3532 18 34.8267 18 37C18 39.1733 17.8783 40.6468 17.6504 41.6725C17.4325 42.6528 17.1742 42.9629 17.0685 43.0685C16.9629 43.1742 16.6528 43.4325 15.6725 43.6504C14.6468 43.8783 13.1733 44 11 44C8.82667 44 7.35321 43.8783 6.32749 43.6504C5.34719 43.4325 5.03715 43.1742 4.93149 43.0685C4.82583 42.9629 4.56749 42.6528 4.34963 41.6725Z" fill="#CACFD8" fill-opacity="0.2"/>
<path fill-rule="evenodd" clip-rule="evenodd" d="M26 37C26 46.0585 27.9415 48 37 48C46.0585 48 48 46.0585 48 37C48 27.9415 46.0585 26 37 26C27.9415 26 26 27.9415 26 37ZM30 37C30 39.1733 30.1217 40.6468 30.3496 41.6725C30.5675 42.6528 30.8258 42.9629 30.9315 43.0685C31.0371 43.1742 31.3472 43.4325 32.3275 43.6504C33.3532 43.8783 34.8267 44 37 44C39.1733 44 40.6468 43.8783 41.6725 43.6504C42.6528 43.4325 42.9629 43.1742 43.0685 43.0685C43.1742 42.9629 43.4325 42.6528 43.6504 41.6725C43.8783 40.6468 44 39.1733 44 37C44 34.8267 43.8783 33.3532 43.6504 32.3275C43.4325 31.3472 43.1742 31.0371 43.0685 30.9315C42.9629 30.8258 42.6528 30.5675 41.6725 30.3496C40.6468 30.1217 39.1733 30 37 30C34.8267 30 33.3532 30.1217 32.3275 30.3496C31.3472 30.5675 31.0371 30.8258 30.9315 30.9315C30.8258 31.0371 30.5675 31.3472 30.3496 32.3275C30.1217 33.3532 30 34.8267 30 37Z" fill="#CACFD8" fill-opacity="0.2"/>
<path d="M39 4C39 2.89543 38.1046 2 37 2C35.8954 2 35 2.89543 35 4V9H30C28.8954 9 28 9.89543 28 11C28 12.1046 28.8954 13 30 13H35V18C35 19.1046 35.8954 20 37 20C38.1046 20 39 19.1046 39 18V13H44C45.1046 13 46 12.1046 46 11C46 9.89543 45.1046 9 44 9H39V4Z" fill="#3B82F6"/>
</svg>
