<svg width="48" height="48" viewBox="0 0 48 48" fill="none" xmlns="http://www.w3.org/2000/svg">
<path d="M13.9436 27.211C15.4094 21.2989 20.7069 17.6742 26.3133 19.1765C31.9197 20.6787 34.6951 26.4665 33.0085 32.3194C32.7027 33.3808 33.3151 34.4891 34.3765 34.7949C35.4378 35.1008 36.5462 34.4883 36.852 33.427C39.0426 25.8252 35.5006 17.4972 27.3485 15.3129C19.1965 13.1285 11.965 18.5698 10.0612 26.2484C9.79539 27.3205 10.449 28.405 11.5211 28.6709C12.5932 28.9367 13.6778 28.283 13.9436 27.211Z" fill="#3B82F6"/>
<path d="M19.9411 29.2875C20.6783 26.341 22.8783 25.0736 24.6192 25.5401C26.3601 26.0065 27.6316 28.2041 26.7969 31.1245C26.4933 32.1865 27.1081 33.2935 28.1701 33.5971C29.2321 33.9006 30.3392 33.2858 30.6427 32.2238C31.8397 28.0362 30.3457 22.9335 25.6544 21.6764C20.9632 20.4194 17.118 24.0915 16.0608 28.3166C15.7927 29.3881 16.4439 30.4741 17.5155 30.7422C18.587 31.0103 19.6729 30.359 19.9411 29.2875Z" fill="#3B82F6"/>
<path d="M4.00249 30.0221C3.92943 28.9497 3.05089 28.1002 1.97602 28.1002C0.840863 28.1002 -0.0709107 29.0509 0.00434711 30.1836C0.854095 42.9727 5.0273 47.1459 17.8164 47.9957C18.949 48.0709 19.8997 47.1591 19.8997 46.024C19.8997 44.9491 19.0502 44.0706 17.9779 43.9975C15.9053 43.8563 14.1481 43.6258 12.6507 43.293C9.93842 42.6902 8.32938 41.8064 7.26149 40.7385C6.19359 39.6706 5.30978 38.0616 4.70701 35.3493C4.37421 33.8519 4.14368 32.0947 4.00249 30.0221Z" fill="#CACFD8" fill-opacity="0.2"/>
<path d="M43.8257 30.0221C43.8988 28.9497 44.7773 28.1002 45.8522 28.1002C46.9873 28.1002 47.8991 29.0509 47.8238 30.1836C46.9741 42.9727 42.8009 47.1459 30.0118 47.9957C28.8791 48.0709 27.9284 47.1591 27.9284 46.024C27.9284 44.9491 28.7779 44.0706 29.8503 43.9975C31.9229 43.8563 33.6801 43.6258 35.1775 43.293C37.8898 42.6902 39.4988 41.8064 40.5667 40.7385C41.6346 39.6706 42.5184 38.0616 43.1212 35.3493C43.454 33.8519 43.6845 32.0947 43.8257 30.0221Z" fill="#CACFD8" fill-opacity="0.2"/>
<path d="M48 24.1778C48 24.1472 48 24.1166 48 24.0859C48 24.0552 48 24.0246 48 23.994V24.1778Z" fill="#CACFD8" fill-opacity="0.2"/>
<path d="M47.8238 17.9882C47.8991 19.1209 46.9873 20.0716 45.8522 20.0716C44.7773 20.0716 43.8988 19.2221 43.8257 18.1497C43.6845 16.0771 43.454 14.3199 43.1212 12.8225C42.5184 10.1102 41.6346 8.50118 40.5667 7.43328C39.4988 6.36539 37.8898 5.48158 35.1775 4.8788C33.6801 4.546 31.9229 4.31547 29.8503 4.17428C28.7779 4.10123 27.9284 3.22269 27.9284 2.14782C27.9284 1.01266 28.8791 0.100885 30.0118 0.176142C42.8009 1.02589 46.9741 5.1991 47.8238 17.9882Z" fill="#CACFD8" fill-opacity="0.2"/>
<path d="M4.00249 18.1497C3.92943 19.2221 3.05089 20.0716 1.97602 20.0716C0.840863 20.0716 -0.0709109 19.1209 0.00434689 17.9882C0.854094 5.19912 5.0273 1.0259 17.8164 0.176147C18.949 0.100888 19.8997 1.01266 19.8997 2.14782C19.8997 3.22269 19.0502 4.10123 17.9779 4.17429C15.9053 4.31548 14.1481 4.546 12.6507 4.8788C9.93842 5.48158 8.32938 6.36539 7.26149 7.43328C6.19359 8.50118 5.30978 10.1102 4.70701 12.8225C4.37421 14.3199 4.14368 16.0771 4.00249 18.1497Z" fill="#CACFD8" fill-opacity="0.2"/>
</svg>
