<svg width="48" height="48" viewBox="0 0 48 48" fill="none" xmlns="http://www.w3.org/2000/svg">
<path d="M30.7524 13.0362C30.3942 12.3847 29.7041 11.9858 28.9608 12.0004C28.2175 12.015 27.5436 12.4406 27.2111 13.1056L18.9157 29.6966L15.2524 23.0362C14.9009 22.3971 14.2294 22 13.5 22H10C8.89543 22 8 22.8954 8 24C8 25.1046 8.89543 26 10 26H12.3175L17.2476 34.9638C17.6058 35.6153 18.2959 36.0142 19.0392 35.9996C19.7825 35.985 20.4564 35.5594 20.7889 34.8944L29.0843 18.3034L32.7476 24.9638C33.0991 25.6029 33.7706 26 34.5 26H38C39.1046 26 40 25.1046 40 24C40 22.8954 39.1046 22 38 22H35.6825L30.7524 13.0362Z" fill="#3B82F6"/>
<path fill-rule="evenodd" clip-rule="evenodd" d="M0 24C0 43.764 4.236 48 24 48C43.764 48 48 43.764 48 24C48 4.236 43.764 0 24 0C4.236 0 0 4.236 0 24ZM4 24C4 28.8497 4.26508 32.4739 4.87542 35.2201C5.47567 37.921 6.35536 39.5215 7.41693 40.5831C8.47849 41.6446 10.079 42.5243 12.7799 43.1246C15.5261 43.7349 19.1503 44 24 44C28.8497 44 32.4739 43.7349 35.2201 43.1246C37.921 42.5243 39.5215 41.6446 40.5831 40.5831C41.6446 39.5215 42.5243 37.921 43.1246 35.2201C43.7349 32.4739 44 28.8497 44 24C44 19.1503 43.7349 15.5261 43.1246 12.7799C42.5243 10.079 41.6446 8.47849 40.5831 7.41693C39.5215 6.35537 37.921 5.47567 35.2201 4.87542C32.4739 4.26508 28.8497 4 24 4C19.1503 4 15.5261 4.26508 12.7799 4.87542C10.079 5.47567 8.47849 6.35537 7.41693 7.41693C6.35536 8.47849 5.47567 10.079 4.87542 12.7799C4.26508 15.5261 4 19.1503 4 24Z" fill="#CACFD8" fill-opacity="0.2"/>
</svg>
